<svg xmlns="http://www.w3.org/2000/svg" viewBox="0 0 186.7 186">
  <defs>
    <style>
      .a {
        fill: #fbf1c7;
      }
    </style>
  </defs>
  <path class="a" d="M127.5,80.8a9.2,9.2,0,0,1,0,13,9.3,9.3,0,0,1-13.1,0L83.7,63.1,53.1,93.8a9.3,9.3,0,0,1-13.1,0,9.2,9.2,0,0,1,0-13L77.1,43.7a9.5,9.5,0,0,1,13.3,0ZM53.1,52.9,83.7,22.2l30.7,30.7a9.3,9.3,0,0,0,13.1-13.1L90.4,2.7a9.5,9.5,0,0,0-13.3,0L40,39.8A9.3,9.3,0,0,0,53.1,52.9ZM181.9,184.4h0a9.6,9.6,0,0,1-5.3,1.6H9.2A9.3,9.3,0,0,1,0,176.7H0V9.2A9.2,9.2,0,0,1,9.2,0a9.2,9.2,0,0,1,9.3,9.2V167.5H98.4l34-51.3a8.8,8.8,0,0,1,4.2-3.4h.2l.6-.2h5.3l.7.2h.1a9.5,9.5,0,0,1,4.3,3.4l36.7,55.4A9.3,9.3,0,0,1,181.9,184.4Zm-61.3-16.9h38.9l-19.4-29.4Z"/>
</svg>
